<svg xmlns="http://www.w3.org/2000/svg" xmlns:xlink="http://www.w3.org/1999/xlink" width="1366" zoomAndPan="magnify" viewBox="0 0 1024.5 576" height="768" preserveAspectRatio="xMidYMid meet" version="1.0"><defs><clipPath id="5d7838f8bd"><path d="M 0 0.140625 L 345.582031 0.140625 L 345.582031 288 L 0 288 Z M 0 0.140625 " clip-rule="nonzero"/></clipPath><clipPath id="633a64c191"><path d="M 678.410156 288 L 1023.992188 288 L 1023.992188 575.859375 L 678.410156 575.859375 Z M 678.410156 288 " clip-rule="nonzero"/></clipPath><clipPath id="0d4bfa0dcd"><path d="M 421 119.289062 L 680.625 119.289062 L 680.625 456.625 L 421 456.625 Z M 421 119.289062 " clip-rule="nonzero"/></clipPath><clipPath id="5ffef3796c"><path d="M 343.292969 350 L 422 350 L 422 376 L 343.292969 376 Z M 343.292969 350 " clip-rule="nonzero"/></clipPath><clipPath id="1eefd1ce53"><path d="M 343.292969 200 L 422 200 L 422 226 L 343.292969 226 Z M 343.292969 200 " clip-rule="nonzero"/></clipPath><clipPath id="0cd44b2d98"><path d="M 343.292969 283 L 422 283 L 422 294 L 343.292969 294 Z M 343.292969 283 " clip-rule="nonzero"/></clipPath></defs><g clip-path="url(#5d7838f8bd)"><path fill="#f73728" d="M 96.457031 5.652344 C 95.601562 4.820312 94.3125 4.820312 93.457031 5.652344 C 92.625 6.503906 92.625 7.796875 93.457031 8.648438 C 94.175781 9.347656 95.214844 9.460938 96.03125 8.96875 L 119.785156 32.722656 L 119.785156 47.355469 L 142.128906 69.699219 L 198.679688 69.699219 L 211.277344 57.101562 L 341.582031 57.101562 C 341.820312 58.015625 342.652344 58.695312 343.636719 58.695312 C 344.804688 58.695312 345.761719 57.746094 345.761719 56.574219 C 345.761719 55.410156 344.8125 54.449219 343.636719 54.449219 C 342.652344 54.449219 341.820312 55.132812 341.582031 56.046875 L 210.847656 56.046875 L 198.25 68.644531 L 142.570312 68.644531 L 120.839844 46.917969 L 120.839844 32.285156 L 96.773438 8.21875 C 97.265625 7.410156 97.160156 6.371094 96.457031 5.652344 M 6.332031 29.871094 C 5.167969 29.871094 4.207031 30.824219 4.207031 31.996094 C 4.207031 33.160156 5.160156 34.117188 6.332031 34.117188 C 7.320312 34.117188 8.152344 33.4375 8.386719 32.523438 L 74.863281 32.523438 L 87.890625 45.550781 L 87.890625 74.34375 L 133.601562 120.054688 L 195.101562 120.054688 L 208.21875 133.171875 L 277.207031 133.171875 C 277.445312 134.085938 278.277344 134.769531 279.265625 134.769531 C 280.429688 134.769531 281.386719 133.820312 281.386719 132.644531 C 281.386719 131.480469 280.4375 130.523438 279.265625 130.523438 C 278.277344 130.523438 277.445312 131.207031 277.207031 132.117188 L 208.648438 132.117188 L 195.53125 119.003906 L 134.03125 119.003906 L 88.9375 73.90625 L 88.9375 45.113281 L 75.292969 31.46875 L 8.386719 31.46875 C 8.152344 30.546875 7.320312 29.871094 6.332031 29.871094 Z M 119.339844 61.734375 C 118.488281 60.902344 117.195312 60.902344 116.34375 61.734375 C 115.511719 62.585938 115.511719 63.878906 116.34375 64.730469 C 117.0625 65.429688 118.101562 65.542969 118.917969 65.050781 L 141.292969 87.425781 L 205.003906 87.425781 L 218.8125 73.617188 L 264.589844 73.617188 C 264.828125 74.53125 265.660156 75.214844 266.644531 75.214844 C 267.8125 75.214844 268.769531 74.261719 268.769531 73.089844 C 268.769531 71.925781 267.820312 70.96875 266.644531 70.96875 C 265.660156 70.96875 264.828125 71.648438 264.589844 72.5625 L 218.378906 72.5625 L 204.574219 86.371094 L 141.738281 86.371094 L 119.675781 64.308594 C 120.152344 63.492188 120.039062 62.460938 119.339844 61.734375 Z M 150.941406 52.847656 C 149.777344 52.847656 148.820312 53.796875 148.820312 54.96875 C 148.820312 56.136719 149.769531 57.09375 150.941406 57.09375 C 151.929688 57.09375 152.761719 56.410156 152.996094 55.496094 L 190.804688 55.496094 L 208.128906 38.171875 L 269.539062 38.171875 L 278.992188 28.722656 L 323.441406 28.722656 C 323.675781 29.636719 324.507812 30.320312 325.496094 30.320312 C 326.660156 30.320312 327.621094 29.367188 327.621094 28.195312 C 327.621094 27.03125 326.667969 26.074219 325.496094 26.074219 C 324.507812 26.074219 323.675781 26.753906 323.441406 27.667969 L 278.550781 27.667969 L 269.101562 37.117188 L 207.691406 37.117188 L 190.367188 54.445312 L 152.996094 54.445312 C 152.761719 53.53125 151.929688 52.847656 150.941406 52.847656 Z M 127.671875 2.683594 C 125.183594 0.226562 121.226562 0.226562 118.738281 2.683594 C 116.28125 5.167969 116.28125 9.125 118.738281 11.613281 C 120.839844 13.691406 123.980469 14.011719 126.410156 12.585938 L 149.960938 36.136719 L 177.507812 36.136719 L 192.835938 20.808594 L 219.34375 20.808594 C 220.050781 23.527344 222.53125 25.546875 225.453125 25.546875 C 228.929688 25.546875 231.765625 22.710938 231.765625 19.234375 C 231.765625 15.761719 228.929688 12.925781 225.453125 12.925781 C 222.523438 12.925781 220.050781 14.945312 219.34375 17.660156 L 191.53125 17.660156 L 176.203125 32.992188 L 151.277344 32.992188 L 128.644531 10.351562 C 130.066406 7.929688 129.742188 4.78125 127.671875 2.683594 Z M 6.332031 35.9375 C 2.859375 35.9375 0.0234375 38.773438 0.0234375 42.246094 C 0.0234375 45.722656 2.859375 48.558594 6.332031 48.558594 C 9.265625 48.558594 11.734375 46.539062 12.441406 43.820312 L 62.589844 43.820312 L 70.980469 52.210938 L 70.980469 78.242188 L 127.078125 134.339844 L 127.078125 171.65625 L 154.578125 199.15625 C 153.152344 201.585938 153.472656 204.722656 155.550781 206.824219 C 158.039062 209.28125 161.996094 209.28125 164.480469 206.824219 C 166.9375 204.339844 166.9375 200.382812 164.480469 197.894531 C 162.378906 195.816406 159.242188 195.496094 156.8125 196.921875 L 130.230469 170.339844 L 130.230469 133.023438 L 74.132812 76.929688 L 74.132812 50.894531 L 63.898438 40.660156 L 12.441406 40.660156 C 11.734375 37.957031 9.265625 35.9375 6.332031 35.9375 Z M 237.761719 159.71875 C 238.929688 159.71875 239.886719 158.769531 239.886719 157.59375 C 239.886719 156.429688 238.933594 155.472656 237.761719 155.472656 C 236.773438 155.472656 235.945312 156.15625 235.707031 157.066406 L 208.152344 157.066406 L 191.269531 140.1875 L 141.609375 140.1875 L 141.609375 162.710938 L 161.171875 182.269531 L 184.582031 182.269531 C 184.820312 183.183594 185.652344 183.867188 186.640625 183.867188 C 187.804688 183.867188 188.761719 182.914062 188.761719 181.742188 C 188.761719 180.578125 187.8125 179.621094 186.640625 179.621094 C 185.652344 179.621094 184.820312 180.300781 184.582031 181.214844 L 161.609375 181.214844 L 142.664062 162.273438 L 142.664062 141.242188 L 190.832031 141.242188 L 207.722656 158.121094 L 235.707031 158.121094 C 235.945312 159.035156 236.773438 159.71875 237.761719 159.71875 Z M 6.332031 54.011719 C 5.167969 54.011719 4.207031 54.964844 4.207031 56.136719 C 4.207031 57.300781 5.160156 58.257812 6.332031 58.257812 C 7.320312 58.257812 8.152344 57.574219 8.386719 56.664062 L 51.351562 56.664062 L 56.5625 61.875 L 56.5625 81.789062 L 33.449219 104.914062 L 33.449219 171.542969 L 61.027344 199.121094 L 61.027344 230.179688 C 60.113281 230.414062 59.429688 231.246094 59.429688 232.234375 C 59.429688 233.398438 60.378906 234.359375 61.550781 234.359375 C 62.71875 234.359375 63.675781 233.40625 63.675781 232.234375 C 63.675781 231.246094 62.992188 230.414062 62.078125 230.179688 L 62.078125 198.683594 L 34.503906 171.105469 L 34.503906 105.34375 L 57.617188 82.226562 L 57.617188 61.4375 L 51.785156 55.601562 L 8.386719 55.601562 C 8.152344 54.695312 7.320312 54.011719 6.332031 54.011719 Z M 41.828125 79.84375 C 44.285156 77.359375 44.285156 73.402344 41.828125 70.914062 C 39.34375 68.457031 35.386719 68.457031 32.898438 70.914062 C 30.820312 73.015625 30.5 76.15625 31.925781 78.582031 L 20.160156 90.347656 L 20.160156 182.386719 L 38.15625 200.382812 L 38.15625 247.742188 C 35.4375 248.445312 33.417969 250.925781 33.417969 253.851562 C 33.417969 257.324219 36.253906 260.160156 39.726562 260.160156 C 43.203125 260.160156 46.039062 257.324219 46.039062 253.851562 C 46.039062 250.917969 44.019531 248.445312 41.300781 247.742188 L 41.300781 199.074219 L 23.316406 181.089844 L 23.316406 91.664062 L 34.152344 80.824219 C 36.589844 82.25 39.734375 81.925781 41.828125 79.84375 Z M 23.710938 199.566406 C 23.710938 198.398438 22.757812 197.441406 21.585938 197.441406 C 20.421875 197.441406 19.464844 198.394531 19.464844 199.566406 C 19.464844 200.550781 20.144531 201.382812 21.058594 201.621094 L 21.058594 237.378906 L 13.5625 244.875 L 13.5625 283.667969 C 12.648438 283.90625 11.964844 284.738281 11.964844 285.726562 C 11.964844 286.890625 12.917969 287.847656 14.089844 287.847656 C 15.253906 287.847656 16.210938 286.898438 16.210938 285.726562 C 16.210938 284.738281 15.527344 283.90625 14.617188 283.667969 L 14.617188 245.308594 L 22.113281 237.808594 L 22.113281 201.621094 C 23.035156 201.382812 23.710938 200.554688 23.710938 199.566406 Z M 67.90625 101.808594 C 67.054688 100.980469 65.761719 100.980469 64.90625 101.808594 C 64.078125 102.664062 64.078125 103.957031 64.90625 104.808594 C 65.628906 105.507812 66.667969 105.617188 67.484375 105.128906 L 104.066406 141.710938 L 104.066406 178 L 147.921875 221.855469 L 228.453125 221.855469 C 228.691406 222.769531 229.523438 223.453125 230.511719 223.453125 C 231.675781 223.453125 232.632812 222.503906 232.632812 221.328125 C 232.632812 220.164062 231.683594 219.207031 230.511719 219.207031 C 229.523438 219.207031 228.691406 219.890625 228.453125 220.804688 L 148.359375 220.804688 L 105.117188 177.5625 L 105.117188 141.273438 L 68.226562 104.378906 C 68.714844 103.570312 68.605469 102.539062 67.90625 101.808594 Z M 70.636719 92.679688 C 71.46875 91.828125 71.46875 90.535156 70.636719 89.679688 C 69.785156 88.851562 68.492188 88.851562 67.640625 89.679688 C 66.941406 90.402344 66.832031 91.441406 67.320312 92.257812 L 47.300781 112.277344 L 47.300781 162.695312 L 76.792969 192.1875 L 76.792969 260.152344 C 75.878906 260.390625 75.195312 261.222656 75.195312 262.210938 C 75.195312 263.375 76.144531 264.332031 77.320312 264.332031 C 78.484375 264.332031 79.441406 263.382812 79.441406 262.210938 C 79.441406 261.222656 78.757812 260.390625 77.847656 260.152344 L 77.847656 191.757812 L 48.355469 162.265625 L 48.355469 112.714844 L 68.070312 93 C 68.878906 93.488281 69.917969 93.386719 70.636719 92.679688 Z M 80.816406 129.980469 C 80.792969 125.320312 77.058594 121.59375 72.398438 121.5625 C 67.734375 121.585938 64.007812 125.320312 63.980469 129.980469 C 64.003906 133.914062 66.660156 137.1875 70.289062 138.125 L 70.289062 166.199219 L 89.539062 185.445312 L 89.539062 211.777344 C 85.90625 212.71875 83.25 215.984375 83.226562 219.917969 C 83.25 224.582031 86.984375 228.308594 91.644531 228.335938 C 96.308594 228.316406 100.035156 224.582031 100.0625 219.917969 C 100.042969 215.984375 97.382812 212.710938 93.753906 211.777344 L 93.753906 183.703125 L 74.503906 164.453125 L 74.503906 138.125 C 78.136719 137.1875 80.792969 133.914062 80.816406 129.980469 Z M 6.332031 16.933594 C 5.167969 16.933594 4.207031 17.882812 4.207031 19.058594 C 4.207031 20.222656 5.160156 21.179688 6.332031 21.179688 C 7.320312 21.179688 8.152344 20.496094 8.386719 19.585938 L 83.226562 19.585938 L 103.589844 39.945312 L 103.589844 70.402344 L 138.53125 105.34375 L 219.933594 105.34375 C 220.167969 106.257812 221 106.941406 221.988281 106.941406 C 223.152344 106.941406 224.109375 105.988281 224.109375 104.816406 C 224.109375 103.652344 223.160156 102.695312 221.988281 102.695312 C 221 102.695312 220.167969 103.375 219.933594 104.289062 L 138.960938 104.289062 L 104.636719 69.964844 L 104.636719 39.507812 L 83.660156 18.53125 L 8.386719 18.53125 C 8.152344 17.609375 7.320312 16.933594 6.332031 16.933594 Z M 6.332031 16.933594 " fill-opacity="1" fill-rule="nonzero"/></g><g clip-path="url(#633a64c191)"><path fill="#f73728" d="M 927.535156 570.347656 C 928.390625 571.179688 929.679688 571.179688 930.535156 570.347656 C 931.367188 569.496094 931.367188 568.203125 930.535156 567.351562 C 929.816406 566.652344 928.777344 566.539062 927.957031 567.03125 L 904.203125 543.277344 L 904.203125 528.644531 L 881.863281 506.300781 L 825.3125 506.300781 L 812.714844 518.898438 L 682.410156 518.898438 C 682.171875 517.984375 681.339844 517.304688 680.351562 517.304688 C 679.1875 517.304688 678.230469 518.253906 678.230469 519.425781 C 678.230469 520.589844 679.179688 521.550781 680.351562 521.550781 C 681.339844 521.550781 682.171875 520.867188 682.410156 519.953125 L 813.144531 519.953125 L 825.742188 507.355469 L 881.421875 507.355469 L 903.152344 529.082031 L 903.152344 543.714844 L 927.214844 567.78125 C 926.726562 568.589844 926.832031 569.628906 927.535156 570.347656 M 1017.660156 546.128906 C 1018.824219 546.128906 1019.78125 545.175781 1019.78125 544.003906 C 1019.78125 542.839844 1018.832031 541.882812 1017.660156 541.882812 C 1016.671875 541.882812 1015.839844 542.5625 1015.605469 543.476562 L 949.128906 543.476562 L 936.101562 530.449219 L 936.101562 501.65625 L 890.390625 455.945312 L 828.890625 455.945312 L 815.773438 442.828125 L 746.78125 442.828125 C 746.546875 441.914062 745.714844 441.230469 744.726562 441.230469 C 743.5625 441.230469 742.605469 442.179688 742.605469 443.355469 C 742.605469 444.519531 743.554688 445.476562 744.726562 445.476562 C 745.714844 445.476562 746.546875 444.792969 746.78125 443.882812 L 815.34375 443.882812 L 828.460938 456.996094 L 889.960938 456.996094 L 935.054688 502.09375 L 935.054688 530.886719 L 948.699219 544.53125 L 1015.605469 544.53125 C 1015.839844 545.453125 1016.671875 546.128906 1017.660156 546.128906 Z M 904.648438 514.265625 C 905.503906 515.097656 906.796875 515.097656 907.648438 514.265625 C 908.480469 513.414062 908.480469 512.121094 907.648438 511.269531 C 906.929688 510.570312 905.890625 510.457031 905.074219 510.949219 L 882.699219 488.574219 L 818.988281 488.574219 L 805.179688 502.382812 L 759.402344 502.382812 C 759.164062 501.46875 758.332031 500.785156 757.347656 500.785156 C 756.179688 500.785156 755.222656 501.738281 755.222656 502.910156 C 755.222656 504.074219 756.171875 505.03125 757.347656 505.03125 C 758.332031 505.03125 759.164062 504.351562 759.402344 503.4375 L 805.609375 503.4375 L 819.417969 489.628906 L 882.253906 489.628906 L 904.316406 511.691406 C 903.839844 512.507812 903.953125 513.539062 904.648438 514.265625 Z M 873.050781 523.152344 C 874.214844 523.152344 875.171875 522.203125 875.171875 521.03125 C 875.171875 519.863281 874.222656 518.90625 873.050781 518.90625 C 872.0625 518.90625 871.230469 519.589844 870.992188 520.503906 L 833.1875 520.503906 L 815.863281 537.828125 L 754.449219 537.828125 L 745 547.277344 L 700.550781 547.277344 C 700.3125 546.363281 699.484375 545.679688 698.496094 545.679688 C 697.332031 545.679688 696.371094 546.632812 696.371094 547.804688 C 696.371094 548.96875 697.324219 549.925781 698.496094 549.925781 C 699.484375 549.925781 700.3125 549.246094 700.550781 548.332031 L 745.4375 548.332031 L 754.890625 538.882812 L 816.300781 538.882812 L 833.625 521.554688 L 870.992188 521.554688 C 871.230469 522.46875 872.0625 523.152344 873.050781 523.152344 Z M 896.320312 573.316406 C 898.808594 575.773438 902.765625 575.773438 905.25 573.316406 C 907.707031 570.832031 907.707031 566.875 905.25 564.386719 C 903.152344 562.308594 900.011719 561.988281 897.582031 563.414062 L 874.03125 539.863281 L 846.484375 539.863281 L 831.152344 555.191406 L 804.644531 555.191406 C 803.941406 552.472656 801.460938 550.453125 798.535156 550.453125 C 795.0625 550.453125 792.226562 553.289062 792.226562 556.765625 C 792.226562 560.238281 795.0625 563.074219 798.535156 563.074219 C 801.46875 563.074219 803.941406 561.054688 804.644531 558.339844 L 832.460938 558.339844 L 847.789062 543.007812 L 872.714844 543.007812 L 895.347656 565.648438 C 893.925781 568.070312 894.25 571.21875 896.320312 573.316406 Z M 1017.660156 540.0625 C 1021.132812 540.0625 1023.96875 537.226562 1023.96875 533.753906 C 1023.96875 530.277344 1021.132812 527.441406 1017.660156 527.441406 C 1014.726562 527.441406 1012.253906 529.460938 1011.550781 532.179688 L 961.398438 532.179688 L 953.011719 523.789062 L 953.011719 497.757812 L 896.914062 441.660156 L 896.914062 404.34375 L 869.414062 376.84375 C 870.839844 374.414062 870.519531 371.277344 868.441406 369.175781 C 865.953125 366.71875 861.996094 366.71875 859.511719 369.175781 C 857.054688 371.660156 857.054688 375.617188 859.511719 378.105469 C 861.609375 380.183594 864.75 380.503906 867.179688 379.078125 L 893.761719 405.660156 L 893.761719 442.976562 L 949.855469 499.070312 L 949.855469 525.105469 L 960.09375 535.339844 L 1011.550781 535.339844 C 1012.253906 538.042969 1014.726562 540.0625 1017.660156 540.0625 Z M 786.230469 416.28125 C 785.0625 416.28125 784.105469 417.230469 784.105469 418.40625 C 784.105469 419.570312 785.054688 420.527344 786.230469 420.527344 C 787.214844 420.527344 788.046875 419.84375 788.285156 418.933594 L 815.839844 418.933594 L 832.71875 435.8125 L 882.382812 435.8125 L 882.382812 413.289062 L 862.820312 393.730469 L 839.410156 393.730469 C 839.171875 392.816406 838.339844 392.132812 837.351562 392.132812 C 836.1875 392.132812 835.230469 393.085938 835.230469 394.257812 C 835.230469 395.421875 836.179688 396.378906 837.351562 396.378906 C 838.339844 396.378906 839.171875 395.699219 839.410156 394.785156 L 862.382812 394.785156 L 881.328125 413.726562 L 881.328125 434.757812 L 833.160156 434.757812 L 816.269531 417.878906 L 788.285156 417.878906 C 788.046875 416.964844 787.214844 416.28125 786.230469 416.28125 Z M 1017.660156 521.988281 C 1018.824219 521.988281 1019.78125 521.035156 1019.78125 519.863281 C 1019.78125 518.699219 1018.832031 517.742188 1017.660156 517.742188 C 1016.671875 517.742188 1015.839844 518.425781 1015.605469 519.335938 L 972.636719 519.335938 L 967.425781 514.125 L 967.425781 494.210938 L 990.542969 471.085938 L 990.542969 404.457031 L 962.964844 376.878906 L 962.964844 345.820312 C 963.878906 345.585938 964.5625 344.753906 964.5625 343.765625 C 964.5625 342.601562 963.613281 341.640625 962.4375 341.640625 C 961.273438 341.640625 960.316406 342.59375 960.316406 343.765625 C 960.316406 344.753906 961 345.585938 961.914062 345.820312 L 961.914062 377.316406 L 989.488281 404.894531 L 989.488281 470.65625 L 966.375 493.773438 L 966.375 514.5625 L 972.207031 520.398438 L 1015.605469 520.398438 C 1015.839844 521.304688 1016.671875 521.988281 1017.660156 521.988281 Z M 982.164062 496.15625 C 979.707031 498.640625 979.707031 502.597656 982.164062 505.085938 C 984.648438 507.542969 988.605469 507.542969 991.09375 505.085938 C 993.171875 502.984375 993.488281 499.84375 992.066406 497.417969 L 1003.832031 485.652344 L 1003.832031 393.613281 L 985.835938 375.617188 L 985.835938 328.257812 C 988.554688 327.554688 990.574219 325.074219 990.574219 322.148438 C 990.574219 318.675781 987.738281 315.839844 984.261719 315.839844 C 980.789062 315.839844 977.953125 318.675781 977.953125 322.148438 C 977.953125 325.082031 979.972656 327.554688 982.691406 328.257812 L 982.691406 376.925781 L 1000.675781 394.910156 L 1000.675781 484.335938 L 989.839844 495.175781 C 987.402344 493.75 984.253906 494.074219 982.164062 496.15625 Z M 1000.28125 376.433594 C 1000.28125 377.601562 1001.234375 378.558594 1002.40625 378.558594 C 1003.570312 378.558594 1004.527344 377.605469 1004.527344 376.433594 C 1004.527344 375.449219 1003.84375 374.617188 1002.933594 374.378906 L 1002.933594 338.621094 L 1010.429688 331.125 L 1010.429688 292.332031 C 1011.34375 292.09375 1012.027344 291.261719 1012.027344 290.273438 C 1012.027344 289.109375 1011.074219 288.152344 1009.902344 288.152344 C 1008.738281 288.152344 1007.78125 289.101562 1007.78125 290.273438 C 1007.78125 291.261719 1008.460938 292.09375 1009.375 292.332031 L 1009.375 330.691406 L 1001.878906 338.191406 L 1001.878906 374.378906 C 1000.957031 374.617188 1000.28125 375.445312 1000.28125 376.433594 Z M 956.085938 474.191406 C 956.9375 475.019531 958.230469 475.019531 959.085938 474.191406 C 959.914062 473.335938 959.914062 472.042969 959.085938 471.191406 C 958.363281 470.492188 957.324219 470.382812 956.507812 470.871094 L 919.925781 434.289062 L 919.925781 398 L 876.070312 354.144531 L 795.539062 354.144531 C 795.300781 353.230469 794.46875 352.546875 793.480469 352.546875 C 792.316406 352.546875 791.359375 353.496094 791.359375 354.671875 C 791.359375 355.835938 792.308594 356.792969 793.480469 356.792969 C 794.46875 356.792969 795.300781 356.109375 795.539062 355.195312 L 875.632812 355.195312 L 918.871094 398.4375 L 918.871094 434.726562 L 955.765625 471.621094 C 955.277344 472.429688 955.386719 473.460938 956.085938 474.191406 Z M 953.351562 483.320312 C 952.523438 484.171875 952.523438 485.464844 953.351562 486.320312 C 954.207031 487.148438 955.5 487.148438 956.351562 486.320312 C 957.050781 485.597656 957.160156 484.558594 956.671875 483.742188 L 976.691406 463.722656 L 976.691406 413.304688 L 947.199219 383.8125 L 947.199219 315.847656 C 948.113281 315.609375 948.796875 314.777344 948.796875 313.789062 C 948.796875 312.625 947.84375 311.667969 946.671875 311.667969 C 945.507812 311.667969 944.550781 312.617188 944.550781 313.789062 C 944.550781 314.777344 945.234375 315.609375 946.144531 315.847656 L 946.144531 384.242188 L 975.636719 413.734375 L 975.636719 463.285156 L 955.921875 483 C 955.113281 482.511719 954.074219 482.613281 953.351562 483.320312 Z M 943.175781 446.019531 C 943.199219 450.679688 946.933594 454.40625 951.59375 454.4375 C 956.253906 454.414062 959.980469 450.679688 960.011719 446.019531 C 959.988281 442.085938 957.332031 438.8125 953.703125 437.875 L 953.703125 409.800781 L 934.453125 390.554688 L 934.453125 364.222656 C 938.085938 363.28125 940.742188 360.015625 940.765625 356.082031 C 940.742188 351.417969 937.007812 347.691406 932.347656 347.664062 C 927.683594 347.683594 923.957031 351.417969 923.929688 356.082031 C 923.949219 360.015625 926.609375 363.289062 930.238281 364.222656 L 930.238281 392.296875 L 949.484375 411.546875 L 949.484375 437.875 C 945.855469 438.8125 943.199219 442.085938 943.175781 446.019531 Z M 1017.660156 559.066406 C 1018.824219 559.066406 1019.78125 558.117188 1019.78125 556.941406 C 1019.78125 555.777344 1018.832031 554.820312 1017.660156 554.820312 C 1016.671875 554.820312 1015.839844 555.503906 1015.605469 556.414062 L 940.765625 556.414062 L 920.402344 536.054688 L 920.402344 505.597656 L 885.460938 470.65625 L 804.058594 470.65625 C 803.820312 469.742188 802.992188 469.058594 802.003906 469.058594 C 800.839844 469.058594 799.878906 470.011719 799.878906 471.183594 C 799.878906 472.347656 800.832031 473.304688 802.003906 473.304688 C 802.992188 473.304688 803.820312 472.625 804.058594 471.710938 L 885.03125 471.710938 L 919.355469 506.035156 L 919.355469 536.492188 L 940.332031 557.46875 L 1015.605469 557.46875 C 1015.839844 558.390625 1016.671875 559.066406 1017.660156 559.066406 Z M 1017.660156 559.066406 " fill-opacity="1" fill-rule="nonzero"/></g><g clip-path="url(#0d4bfa0dcd)"><path fill="#f73728" d="M 600.675781 302.078125 C 601.257812 302.078125 601.730469 302.5625 601.730469 303.144531 L 601.730469 314.625 C 601.730469 315.21875 601.257812 315.691406 600.675781 315.691406 L 588.617188 315.691406 L 588.617188 302.078125 Z M 600.675781 323.257812 C 601.257812 323.257812 601.730469 323.730469 601.730469 324.324219 L 601.730469 335.804688 C 601.730469 336.398438 601.257812 336.871094 600.675781 336.871094 L 588.617188 336.871094 L 588.617188 323.257812 Z M 600.675781 344.4375 C 601.257812 344.4375 601.730469 344.914062 601.730469 345.503906 L 601.730469 356.984375 C 601.730469 357.578125 601.257812 358.054688 600.675781 358.054688 L 588.617188 358.054688 L 588.617188 344.4375 Z M 584.875 360.332031 C 584.875 360.792969 584.503906 361.164062 584.042969 361.164062 L 446.585938 361.164062 L 438.546875 353.125 L 438.546875 215.664062 C 438.546875 215.203125 438.914062 214.835938 439.375 214.835938 L 584.042969 214.835938 C 584.503906 214.835938 584.875 215.203125 584.875 215.664062 Z M 582.054688 376.675781 C 582.054688 377.257812 581.578125 377.730469 580.984375 377.730469 L 569.503906 377.730469 C 568.914062 377.730469 568.4375 377.257812 568.4375 376.675781 L 568.4375 364.921875 L 582.054688 364.921875 Z M 560.871094 376.675781 C 560.871094 377.257812 560.398438 377.730469 559.804688 377.730469 L 548.324219 377.730469 C 547.730469 377.730469 547.257812 377.257812 547.257812 376.675781 L 547.257812 364.921875 L 560.871094 364.921875 Z M 539.691406 376.675781 C 539.691406 377.257812 539.21875 377.730469 538.625 377.730469 L 527.144531 377.730469 C 526.5625 377.730469 526.078125 377.257812 526.078125 376.675781 L 526.078125 364.921875 L 539.691406 364.921875 Z M 518.511719 376.675781 C 518.511719 377.257812 518.035156 377.730469 517.441406 377.730469 L 505.964844 377.730469 C 505.371094 377.730469 504.894531 377.257812 504.894531 376.675781 L 504.894531 364.921875 L 518.511719 364.921875 Z M 497.921875 376.675781 C 497.921875 377.257812 497.449219 377.730469 496.855469 377.730469 L 485.375 377.730469 C 484.78125 377.730469 484.308594 377.257812 484.308594 376.675781 L 484.308594 364.921875 L 497.921875 364.921875 Z M 476.742188 376.675781 C 476.742188 377.257812 476.269531 377.730469 475.675781 377.730469 L 464.195312 377.730469 C 463.601562 377.730469 463.125 377.257812 463.125 376.675781 L 463.125 364.921875 L 476.742188 364.921875 Z M 455.5625 376.675781 C 455.5625 377.257812 455.085938 377.730469 454.492188 377.730469 L 443.011719 377.730469 C 442.421875 377.730469 441.945312 377.257812 441.945312 376.675781 L 441.945312 364.921875 L 455.5625 364.921875 Z M 423.320312 358.054688 C 422.742188 358.054688 422.269531 357.578125 422.269531 356.984375 L 422.269531 345.503906 C 422.269531 344.914062 422.742188 344.4375 423.320312 344.4375 L 434.789062 344.4375 L 434.789062 358.054688 Z M 423.320312 336.871094 C 422.742188 336.871094 422.269531 336.398438 422.269531 335.804688 L 422.269531 324.324219 C 422.269531 323.730469 422.742188 323.257812 423.320312 323.257812 L 434.789062 323.257812 L 434.789062 336.871094 Z M 423.320312 315.691406 C 422.742188 315.691406 422.269531 315.21875 422.269531 314.625 L 422.269531 303.144531 C 422.269531 302.5625 422.742188 302.078125 423.320312 302.078125 L 434.789062 302.078125 L 434.789062 315.691406 Z M 423.320312 295.105469 C 422.742188 295.105469 422.269531 294.628906 422.269531 294.035156 L 422.269531 282.554688 C 422.269531 281.964844 422.742188 281.488281 423.320312 281.488281 L 434.789062 281.488281 L 434.789062 295.105469 Z M 423.320312 273.921875 C 422.742188 273.921875 422.269531 273.449219 422.269531 272.855469 L 422.269531 261.375 C 422.269531 260.78125 422.742188 260.308594 423.320312 260.308594 L 434.789062 260.308594 L 434.789062 273.921875 Z M 423.320312 252.742188 C 422.742188 252.742188 422.269531 252.269531 422.269531 251.675781 L 422.269531 240.195312 C 422.269531 239.601562 422.742188 239.125 423.320312 239.125 L 434.789062 239.125 L 434.789062 252.742188 Z M 423.320312 231.5625 C 422.742188 231.5625 422.269531 231.085938 422.269531 230.492188 L 422.269531 219.011719 C 422.269531 218.421875 422.742188 217.945312 423.320312 217.945312 L 434.789062 217.945312 L 434.789062 231.5625 Z M 441.945312 199.320312 C 441.945312 198.742188 442.421875 198.269531 443.011719 198.269531 L 454.492188 198.269531 C 455.085938 198.269531 455.5625 198.742188 455.5625 199.320312 L 455.5625 211.078125 L 441.945312 211.078125 Z M 463.125 199.320312 C 463.125 198.742188 463.601562 198.269531 464.195312 198.269531 L 475.675781 198.269531 C 476.269531 198.269531 476.742188 198.742188 476.742188 199.320312 L 476.742188 211.078125 L 463.125 211.078125 Z M 484.308594 199.320312 C 484.308594 198.742188 484.78125 198.269531 485.375 198.269531 L 496.855469 198.269531 C 497.449219 198.269531 497.921875 198.742188 497.921875 199.320312 L 497.921875 211.078125 L 484.308594 211.078125 Z M 504.894531 199.320312 C 504.894531 198.742188 505.371094 198.269531 505.964844 198.269531 L 517.441406 198.269531 C 518.035156 198.269531 518.511719 198.742188 518.511719 199.320312 L 518.511719 211.078125 L 504.894531 211.078125 Z M 526.078125 199.320312 C 526.078125 198.742188 526.5625 198.269531 527.144531 198.269531 L 538.625 198.269531 C 539.21875 198.269531 539.691406 198.742188 539.691406 199.320312 L 539.691406 211.078125 L 526.078125 211.078125 Z M 547.257812 199.320312 C 547.257812 198.742188 547.730469 198.269531 548.324219 198.269531 L 559.804688 198.269531 C 560.398438 198.269531 560.871094 198.742188 560.871094 199.320312 L 560.871094 211.078125 L 547.257812 211.078125 Z M 568.4375 199.320312 C 568.4375 198.742188 568.914062 198.269531 569.503906 198.269531 L 580.984375 198.269531 C 581.578125 198.269531 582.054688 198.742188 582.054688 199.320312 L 582.054688 211.078125 L 568.4375 211.078125 Z M 600.675781 217.945312 C 601.257812 217.945312 601.730469 218.421875 601.730469 219.011719 L 601.730469 230.492188 C 601.730469 231.085938 601.257812 231.5625 600.675781 231.5625 L 588.617188 231.5625 L 588.617188 217.945312 Z M 600.675781 239.125 C 601.257812 239.125 601.730469 239.601562 601.730469 240.195312 L 601.730469 251.675781 C 601.730469 252.269531 601.257812 252.742188 600.675781 252.742188 L 588.617188 252.742188 L 588.617188 239.125 Z M 600.675781 260.308594 C 601.257812 260.308594 601.730469 260.78125 601.730469 261.375 L 601.730469 272.855469 C 601.730469 273.449219 601.257812 273.921875 600.675781 273.921875 L 588.617188 273.921875 L 588.617188 260.308594 Z M 600.675781 281.488281 C 601.257812 281.488281 601.730469 281.964844 601.730469 282.554688 L 601.730469 294.035156 C 601.730469 294.628906 601.257812 295.105469 600.675781 295.105469 L 588.617188 295.105469 L 588.617188 281.488281 Z M 655.335938 343.199219 C 655.335938 344.398438 654.359375 345.359375 653.175781 345.359375 C 651.988281 345.359375 651.011719 344.398438 651.011719 343.199219 C 651.011719 342.011719 651.988281 341.039062 653.175781 341.039062 C 654.359375 341.039062 655.335938 342.011719 655.335938 343.199219 Z M 626.15625 327.910156 C 627.355469 327.910156 628.316406 328.871094 628.316406 330.070312 C 628.316406 331.257812 627.355469 332.21875 626.15625 332.21875 C 624.96875 332.21875 623.992188 331.257812 623.992188 330.070312 C 623.992188 328.871094 624.96875 327.910156 626.15625 327.910156 Z M 675.144531 368.769531 C 676.34375 368.769531 677.308594 369.746094 677.308594 370.929688 C 677.308594 372.117188 676.34375 373.09375 675.144531 373.09375 C 673.960938 373.09375 672.996094 372.117188 672.996094 370.929688 C 672.996094 369.746094 673.960938 368.769531 675.144531 368.769531 Z M 597.09375 451.160156 C 597.09375 452.34375 596.117188 453.308594 594.929688 453.308594 C 593.730469 453.308594 592.769531 452.34375 592.769531 451.160156 C 592.769531 449.960938 593.730469 448.984375 594.929688 448.984375 C 596.117188 448.984375 597.09375 449.960938 597.09375 451.160156 Z M 556.21875 402.15625 C 556.21875 403.355469 555.257812 404.316406 554.070312 404.316406 C 552.871094 404.316406 551.910156 403.355469 551.910156 402.15625 C 551.910156 400.96875 552.871094 399.992188 554.070312 399.992188 C 555.257812 399.992188 556.21875 400.96875 556.21875 402.15625 Z M 567.199219 427.011719 C 568.386719 427.011719 569.359375 427.988281 569.359375 429.175781 C 569.359375 430.359375 568.386719 431.335938 567.199219 431.335938 C 566.011719 431.335938 565.039062 430.359375 565.039062 429.175781 C 565.039062 427.988281 566.011719 427.011719 567.199219 427.011719 Z M 513.871094 451.6875 C 513.871094 452.886719 512.894531 453.859375 511.710938 453.859375 C 510.511719 453.859375 509.546875 452.886719 509.546875 451.6875 C 509.546875 450.5 510.511719 449.539062 511.710938 449.539062 C 512.894531 449.539062 513.871094 450.5 513.871094 451.6875 Z M 456.800781 431.335938 C 455.613281 431.335938 454.640625 430.359375 454.640625 429.175781 C 454.640625 427.988281 455.613281 427.011719 456.800781 427.011719 C 457.988281 427.011719 458.960938 427.988281 458.960938 429.175781 C 458.960938 430.359375 457.988281 431.335938 456.800781 431.335938 Z M 472.089844 402.15625 C 472.089844 403.355469 471.128906 404.316406 469.929688 404.316406 C 468.742188 404.316406 467.78125 403.355469 467.78125 402.15625 C 467.78125 400.96875 468.742188 399.992188 469.929688 399.992188 C 471.128906 399.992188 472.089844 400.96875 472.089844 402.15625 Z M 431.230469 451.160156 C 431.230469 452.34375 430.269531 453.308594 429.070312 453.308594 C 427.882812 453.308594 426.90625 452.34375 426.90625 451.160156 C 426.90625 449.960938 427.882812 448.984375 429.070312 448.984375 C 430.269531 448.984375 431.230469 449.960938 431.230469 451.160156 Z M 426.90625 124.851562 C 426.90625 123.652344 427.882812 122.691406 429.070312 122.691406 C 430.269531 122.691406 431.230469 123.652344 431.230469 124.851562 C 431.230469 126.039062 430.269531 127 429.070312 127 C 427.882812 127 426.90625 126.039062 426.90625 124.851562 Z M 467.78125 173.84375 C 467.78125 172.644531 468.742188 171.683594 469.929688 171.683594 C 471.128906 171.683594 472.089844 172.644531 472.089844 173.84375 C 472.089844 175.03125 471.128906 176.007812 469.929688 176.007812 C 468.742188 176.007812 467.78125 175.03125 467.78125 173.84375 Z M 456.800781 148.984375 C 455.613281 148.984375 454.640625 148.011719 454.640625 146.824219 C 454.640625 145.636719 455.613281 144.664062 456.800781 144.664062 C 457.988281 144.664062 458.960938 145.636719 458.960938 146.824219 C 458.960938 148.011719 457.988281 148.984375 456.800781 148.984375 Z M 509.546875 124.300781 C 509.546875 123.113281 510.511719 122.136719 511.710938 122.136719 C 512.894531 122.136719 513.871094 123.113281 513.871094 124.300781 C 513.871094 125.5 512.894531 126.460938 511.710938 126.460938 C 510.511719 126.460938 509.546875 125.5 509.546875 124.300781 Z M 567.199219 144.664062 C 568.386719 144.664062 569.359375 145.636719 569.359375 146.824219 C 569.359375 148.011719 568.386719 148.984375 567.199219 148.984375 C 566.011719 148.984375 565.039062 148.011719 565.039062 146.824219 C 565.039062 145.636719 566.011719 144.664062 567.199219 144.664062 Z M 551.910156 173.84375 C 551.910156 172.644531 552.871094 171.683594 554.070312 171.683594 C 555.257812 171.683594 556.21875 172.644531 556.21875 173.84375 C 556.21875 175.03125 555.257812 176.007812 554.070312 176.007812 C 552.871094 176.007812 551.910156 175.03125 551.910156 173.84375 Z M 592.769531 124.851562 C 592.769531 123.652344 593.730469 122.691406 594.929688 122.691406 C 596.117188 122.691406 597.09375 123.652344 597.09375 124.851562 C 597.09375 126.039062 596.117188 127 594.929688 127 C 593.730469 127 592.769531 126.039062 592.769531 124.851562 Z M 675.144531 202.90625 C 676.34375 202.90625 677.308594 203.882812 677.308594 205.070312 C 677.308594 206.269531 676.34375 207.230469 675.144531 207.230469 C 673.960938 207.230469 672.996094 206.269531 672.996094 205.070312 C 672.996094 203.882812 673.960938 202.90625 675.144531 202.90625 Z M 626.15625 243.78125 C 627.355469 243.78125 628.316406 244.742188 628.316406 245.929688 C 628.316406 247.128906 627.355469 248.089844 626.15625 248.089844 C 624.96875 248.089844 623.992188 247.128906 623.992188 245.929688 C 623.992188 244.742188 624.96875 243.78125 626.15625 243.78125 Z M 651.011719 232.800781 C 651.011719 231.613281 651.988281 230.636719 653.175781 230.636719 C 654.359375 230.636719 655.335938 231.613281 655.335938 232.800781 C 655.335938 233.988281 654.359375 234.960938 653.175781 234.960938 C 651.988281 234.960938 651.011719 233.988281 651.011719 232.800781 Z M 675.699219 286.128906 C 676.886719 286.128906 677.863281 287.101562 677.863281 288.289062 C 677.863281 289.488281 676.886719 290.449219 675.699219 290.449219 C 674.5 290.449219 673.539062 289.488281 673.539062 288.289062 C 673.539062 287.101562 674.5 286.128906 675.699219 286.128906 Z M 600.675781 296.039062 C 601.769531 296.039062 602.667969 295.144531 602.667969 294.035156 L 602.667969 289 L 670.742188 289 C 671.101562 291.441406 673.167969 293.3125 675.699219 293.3125 C 678.453125 293.3125 680.707031 291.058594 680.707031 288.289062 C 680.707031 285.535156 678.453125 283.28125 675.699219 283.28125 C 673.167969 283.28125 671.101562 285.152344 670.742188 287.578125 L 602.667969 287.578125 L 602.667969 282.554688 C 602.667969 281.449219 601.769531 280.550781 600.675781 280.550781 L 588.617188 280.550781 L 588.617188 274.859375 L 600.675781 274.859375 C 601.769531 274.859375 602.667969 273.960938 602.667969 272.855469 L 602.667969 267.832031 L 653.886719 267.832031 L 653.886719 237.742188 C 656.3125 237.398438 658.195312 235.316406 658.195312 232.800781 C 658.195312 230.03125 655.941406 227.792969 653.175781 227.792969 C 650.40625 227.792969 648.152344 230.03125 648.152344 232.800781 C 648.152344 235.316406 650.039062 237.398438 652.460938 237.742188 L 652.460938 266.398438 L 602.667969 266.398438 L 602.667969 261.375 C 602.667969 260.269531 601.769531 259.371094 600.675781 259.371094 L 588.617188 259.371094 L 588.617188 253.679688 L 600.675781 253.679688 C 601.769531 253.679688 602.667969 252.78125 602.667969 251.675781 L 602.667969 246.652344 L 621.210938 246.652344 C 621.566406 249.078125 623.636719 250.949219 626.15625 250.949219 C 628.921875 250.949219 631.175781 248.695312 631.175781 245.929688 C 631.175781 243.171875 628.921875 240.917969 626.15625 240.917969 C 623.636719 240.917969 621.566406 242.789062 621.210938 245.214844 L 602.667969 245.214844 L 602.667969 240.195312 C 602.667969 239.085938 601.769531 238.191406 600.675781 238.191406 L 588.617188 238.191406 L 588.617188 232.496094 L 600.675781 232.496094 C 601.769531 232.496094 602.667969 231.601562 602.667969 230.492188 L 602.667969 225.3125 L 636.726562 225.3125 L 636.726562 205.78125 L 670.214844 205.78125 C 670.558594 208.207031 672.628906 210.089844 675.144531 210.089844 C 677.914062 210.089844 680.167969 207.835938 680.167969 205.070312 C 680.167969 202.300781 677.914062 200.058594 675.144531 200.058594 C 672.628906 200.058594 670.558594 201.933594 670.214844 204.355469 L 635.300781 204.355469 L 635.300781 223.890625 L 602.667969 223.890625 L 602.667969 219.011719 C 602.667969 217.90625 601.769531 217.011719 600.675781 217.011719 L 588.617188 217.011719 L 588.617188 215.664062 C 588.617188 213.136719 586.5625 211.078125 584.042969 211.078125 L 582.988281 211.078125 L 582.988281 199.320312 C 582.988281 198.226562 582.09375 197.332031 580.984375 197.332031 L 576.109375 197.332031 L 576.109375 164.699219 L 595.640625 164.699219 L 595.640625 129.78125 C 598.066406 129.441406 599.9375 127.371094 599.9375 124.851562 C 599.9375 122.085938 597.699219 119.832031 594.929688 119.832031 C 592.164062 119.832031 589.910156 122.085938 589.910156 124.851562 C 589.910156 127.371094 591.792969 129.441406 594.21875 129.78125 L 594.21875 163.273438 L 574.683594 163.273438 L 574.683594 197.332031 L 569.503906 197.332031 C 568.398438 197.332031 567.503906 198.226562 567.503906 199.320312 L 567.503906 211.078125 L 561.808594 211.078125 L 561.808594 199.320312 C 561.808594 198.226562 560.910156 197.332031 559.804688 197.332031 L 554.78125 197.332031 L 554.78125 178.785156 C 557.207031 178.429688 559.078125 176.363281 559.078125 173.84375 C 559.078125 171.078125 556.824219 168.824219 554.070312 168.824219 C 551.304688 168.824219 549.050781 171.078125 549.050781 173.84375 C 549.050781 176.363281 550.921875 178.429688 553.347656 178.785156 L 553.347656 197.332031 L 548.324219 197.332031 C 547.21875 197.332031 546.320312 198.226562 546.320312 199.320312 L 546.320312 211.078125 L 540.628906 211.078125 L 540.628906 199.320312 C 540.628906 198.226562 539.730469 197.332031 538.625 197.332031 L 533.601562 197.332031 L 533.601562 147.535156 L 562.257812 147.535156 C 562.597656 149.960938 564.679688 151.847656 567.199219 151.847656 C 569.96875 151.847656 572.207031 149.59375 572.207031 146.824219 C 572.207031 144.058594 569.96875 141.804688 567.199219 141.804688 C 564.679688 141.804688 562.597656 143.6875 562.257812 146.113281 L 532.164062 146.113281 L 532.164062 197.332031 L 527.144531 197.332031 C 526.035156 197.332031 525.140625 198.226562 525.140625 199.320312 L 525.140625 211.078125 L 519.445312 211.078125 L 519.445312 199.320312 C 519.445312 198.226562 518.550781 197.332031 517.441406 197.332031 L 512.421875 197.332031 L 512.421875 129.253906 C 514.847656 128.898438 516.71875 126.832031 516.71875 124.300781 C 516.71875 121.542969 514.464844 119.289062 511.710938 119.289062 C 508.941406 119.289062 506.6875 121.542969 506.6875 124.300781 C 506.6875 126.832031 508.558594 128.898438 510.996094 129.253906 L 510.996094 197.332031 L 505.964844 197.332031 C 504.855469 197.332031 503.960938 198.226562 503.960938 199.320312 L 503.960938 211.078125 L 498.859375 211.078125 L 498.859375 199.320312 C 498.859375 198.226562 497.960938 197.332031 496.855469 197.332031 L 491.832031 197.332031 L 491.832031 146.113281 L 461.742188 146.113281 C 461.386719 143.6875 459.316406 141.804688 456.800781 141.804688 C 454.03125 141.804688 451.792969 144.058594 451.792969 146.824219 C 451.792969 149.59375 454.03125 151.847656 456.800781 151.847656 C 459.316406 151.847656 461.386719 149.960938 461.742188 147.535156 L 490.398438 147.535156 L 490.398438 197.332031 L 485.375 197.332031 C 484.269531 197.332031 483.371094 198.226562 483.371094 199.320312 L 483.371094 211.078125 L 477.679688 211.078125 L 477.679688 199.320312 C 477.679688 198.226562 476.78125 197.332031 475.675781 197.332031 L 470.652344 197.332031 L 470.652344 178.785156 C 473.078125 178.429688 474.949219 176.363281 474.949219 173.84375 C 474.949219 171.078125 472.695312 168.824219 469.929688 168.824219 C 467.171875 168.824219 464.917969 171.078125 464.917969 173.84375 C 464.917969 176.363281 466.792969 178.429688 469.214844 178.785156 L 469.214844 197.332031 L 464.195312 197.332031 C 463.085938 197.332031 462.191406 198.226562 462.191406 199.320312 L 462.191406 211.078125 L 456.496094 211.078125 L 456.496094 199.320312 C 456.496094 198.226562 455.601562 197.332031 454.492188 197.332031 L 449.3125 197.332031 L 449.3125 163.273438 L 429.78125 163.273438 L 429.78125 129.78125 C 432.207031 129.441406 434.078125 127.371094 434.078125 124.851562 C 434.078125 122.085938 431.835938 119.832031 429.070312 119.832031 C 426.300781 119.832031 424.058594 122.085938 424.058594 124.851562 C 424.058594 127.371094 425.933594 129.441406 428.355469 129.78125 L 428.355469 164.699219 L 447.890625 164.699219 L 447.890625 197.332031 L 443.011719 197.332031 C 441.90625 197.332031 441.011719 198.226562 441.011719 199.320312 L 441.011719 211.078125 L 439.375 211.078125 C 436.84375 211.078125 434.789062 213.136719 434.789062 215.664062 L 434.789062 217.011719 L 423.320312 217.011719 C 422.226562 217.011719 421.332031 217.90625 421.332031 219.011719 L 421.332031 230.492188 C 421.332031 231.601562 422.226562 232.496094 423.320312 232.496094 L 434.789062 232.496094 L 434.789062 238.191406 L 423.320312 238.191406 C 422.226562 238.191406 421.332031 239.085938 421.332031 240.195312 L 421.332031 251.675781 C 421.332031 252.78125 422.226562 253.679688 423.320312 253.679688 L 434.789062 253.679688 L 434.789062 259.371094 L 423.320312 259.371094 C 422.226562 259.371094 421.332031 260.269531 421.332031 261.375 L 421.332031 272.855469 C 421.332031 273.960938 422.226562 274.859375 423.320312 274.859375 L 434.789062 274.859375 L 434.789062 280.550781 L 423.320312 280.550781 C 422.226562 280.550781 421.332031 281.449219 421.332031 282.554688 L 421.332031 294.035156 C 421.332031 295.144531 422.226562 296.039062 423.320312 296.039062 L 434.789062 296.039062 L 434.789062 301.140625 L 423.320312 301.140625 C 422.226562 301.140625 421.332031 302.035156 421.332031 303.144531 L 421.332031 314.625 C 421.332031 315.730469 422.226562 316.628906 423.320312 316.628906 L 434.789062 316.628906 L 434.789062 322.320312 L 423.320312 322.320312 C 422.226562 322.320312 421.332031 323.21875 421.332031 324.324219 L 421.332031 335.804688 C 421.332031 336.910156 422.226562 337.808594 423.320312 337.808594 L 434.789062 337.808594 L 434.789062 343.503906 L 423.320312 343.503906 C 422.226562 343.503906 421.332031 344.398438 421.332031 345.503906 L 421.332031 356.984375 C 421.332031 358.09375 422.226562 358.988281 423.320312 358.988281 L 434.789062 358.988281 L 434.789062 360.332031 C 434.789062 362.863281 436.84375 364.921875 439.375 364.921875 L 441.011719 364.921875 L 441.011719 376.675781 C 441.011719 377.769531 441.90625 378.667969 443.011719 378.667969 L 447.890625 378.667969 L 447.890625 411.300781 L 428.355469 411.300781 L 428.355469 446.203125 C 425.933594 446.558594 424.058594 448.628906 424.058594 451.160156 C 424.058594 453.914062 426.300781 456.167969 429.070312 456.167969 C 431.835938 456.167969 434.078125 453.914062 434.078125 451.160156 C 434.078125 448.628906 432.207031 446.558594 429.78125 446.203125 L 429.78125 412.726562 L 449.3125 412.726562 L 449.3125 378.667969 L 454.492188 378.667969 C 455.601562 378.667969 456.496094 377.769531 456.496094 376.675781 L 456.496094 364.921875 L 462.191406 364.921875 L 462.191406 376.675781 C 462.191406 377.769531 463.085938 378.667969 464.195312 378.667969 L 469.214844 378.667969 L 469.214844 397.210938 C 466.792969 397.566406 464.917969 399.636719 464.917969 402.15625 C 464.917969 404.921875 467.171875 407.175781 469.929688 407.175781 C 472.695312 407.175781 474.949219 404.921875 474.949219 402.15625 C 474.949219 399.636719 473.078125 397.566406 470.652344 397.210938 L 470.652344 378.667969 L 475.675781 378.667969 C 476.78125 378.667969 477.679688 377.769531 477.679688 376.675781 L 477.679688 364.921875 L 483.371094 364.921875 L 483.371094 376.675781 C 483.371094 377.769531 484.269531 378.667969 485.375 378.667969 L 490.398438 378.667969 L 490.398438 428.460938 L 461.742188 428.460938 C 461.386719 426.039062 459.316406 424.164062 456.800781 424.164062 C 454.03125 424.164062 451.792969 426.40625 451.792969 429.175781 C 451.792969 431.941406 454.03125 434.183594 456.800781 434.183594 C 459.316406 434.183594 461.386719 432.3125 461.742188 429.886719 L 491.832031 429.886719 L 491.832031 378.667969 L 496.855469 378.667969 C 497.960938 378.667969 498.859375 377.769531 498.859375 376.675781 L 498.859375 364.921875 L 503.960938 364.921875 L 503.960938 376.675781 C 503.960938 377.769531 504.855469 378.667969 505.964844 378.667969 L 510.996094 378.667969 L 510.996094 446.757812 C 508.558594 447.101562 506.6875 449.167969 506.6875 451.6875 C 506.6875 454.453125 508.941406 456.707031 511.710938 456.707031 C 514.464844 456.707031 516.71875 454.453125 516.71875 451.6875 C 516.71875 449.167969 514.847656 447.101562 512.421875 446.757812 L 512.421875 378.667969 L 517.441406 378.667969 C 518.550781 378.667969 519.445312 377.769531 519.445312 376.675781 L 519.445312 364.921875 L 525.140625 364.921875 L 525.140625 376.675781 C 525.140625 377.769531 526.035156 378.667969 527.144531 378.667969 L 532.164062 378.667969 L 532.164062 429.886719 L 562.257812 429.886719 C 562.597656 432.3125 564.679688 434.183594 567.199219 434.183594 C 569.96875 434.183594 572.207031 431.941406 572.207031 429.175781 C 572.207031 426.40625 569.96875 424.164062 567.199219 424.164062 C 564.679688 424.164062 562.597656 426.039062 562.257812 428.460938 L 533.601562 428.460938 L 533.601562 378.667969 L 538.625 378.667969 C 539.730469 378.667969 540.628906 377.769531 540.628906 376.675781 L 540.628906 364.921875 L 546.320312 364.921875 L 546.320312 376.675781 C 546.320312 377.769531 547.21875 378.667969 548.324219 378.667969 L 553.347656 378.667969 L 553.347656 397.210938 C 550.921875 397.566406 549.050781 399.636719 549.050781 402.15625 C 549.050781 404.921875 551.304688 407.175781 554.070312 407.175781 C 556.824219 407.175781 559.078125 404.921875 559.078125 402.15625 C 559.078125 399.636719 557.207031 397.566406 554.78125 397.210938 L 554.78125 378.667969 L 559.804688 378.667969 C 560.910156 378.667969 561.808594 377.769531 561.808594 376.675781 L 561.808594 364.921875 L 567.503906 364.921875 L 567.503906 376.675781 C 567.503906 377.769531 568.398438 378.667969 569.503906 378.667969 L 574.683594 378.667969 L 574.683594 412.726562 L 594.21875 412.726562 L 594.21875 446.203125 C 591.792969 446.558594 589.910156 448.628906 589.910156 451.160156 C 589.910156 453.914062 592.164062 456.167969 594.929688 456.167969 C 597.699219 456.167969 599.9375 453.914062 599.9375 451.160156 C 599.9375 448.628906 598.066406 446.558594 595.640625 446.203125 L 595.640625 411.300781 L 576.109375 411.300781 L 576.109375 378.667969 L 580.984375 378.667969 C 582.09375 378.667969 582.988281 377.769531 582.988281 376.675781 L 582.988281 364.921875 L 584.042969 364.921875 C 586.5625 364.921875 588.617188 362.863281 588.617188 360.332031 L 588.617188 358.988281 L 600.675781 358.988281 C 601.769531 358.988281 602.667969 358.09375 602.667969 356.984375 L 602.667969 352.109375 L 635.300781 352.109375 L 635.300781 371.640625 L 670.214844 371.640625 C 670.558594 374.066406 672.628906 375.953125 675.144531 375.953125 C 677.914062 375.953125 680.167969 373.699219 680.167969 370.929688 C 680.167969 368.164062 677.914062 365.921875 675.144531 365.921875 C 672.628906 365.921875 670.558594 367.792969 670.214844 370.21875 L 636.726562 370.21875 L 636.726562 350.683594 L 602.667969 350.683594 L 602.667969 345.503906 C 602.667969 344.398438 601.769531 343.503906 600.675781 343.503906 L 588.617188 343.503906 L 588.617188 337.808594 L 600.675781 337.808594 C 601.769531 337.808594 602.667969 336.910156 602.667969 335.804688 L 602.667969 330.78125 L 621.210938 330.78125 C 621.566406 333.207031 623.636719 335.078125 626.15625 335.078125 C 628.921875 335.078125 631.175781 332.824219 631.175781 330.070312 C 631.175781 327.304688 628.921875 325.050781 626.15625 325.050781 C 623.636719 325.050781 621.566406 326.921875 621.210938 329.347656 L 602.667969 329.347656 L 602.667969 324.324219 C 602.667969 323.21875 601.769531 322.320312 600.675781 322.320312 L 588.617188 322.320312 L 588.617188 316.628906 L 600.675781 316.628906 C 601.769531 316.628906 602.667969 315.730469 602.667969 314.625 L 602.667969 309.601562 L 652.460938 309.601562 L 652.460938 338.257812 C 650.039062 338.613281 648.152344 340.679688 648.152344 343.199219 C 648.152344 345.96875 650.40625 348.207031 653.175781 348.207031 C 655.941406 348.207031 658.195312 345.96875 658.195312 343.199219 C 658.195312 340.679688 656.3125 338.613281 653.886719 338.257812 L 653.886719 308.164062 L 602.667969 308.164062 L 602.667969 303.144531 C 602.667969 302.035156 601.769531 301.140625 600.675781 301.140625 L 588.617188 301.140625 L 588.617188 296.039062 L 600.675781 296.039062 " fill-opacity="1" fill-rule="nonzero"/></g><path fill="#f73728" d="M 476.269531 290.042969 C 476.269531 291.886719 474.777344 293.378906 472.933594 293.378906 L 453.320312 293.378906 C 451.488281 293.378906 449.984375 291.886719 449.984375 290.042969 L 449.984375 227.476562 C 449.984375 225.644531 451.488281 224.140625 453.320312 224.140625 L 472.933594 224.140625 C 474.777344 224.140625 476.269531 225.644531 476.269531 227.476562 Z M 472.933594 223.203125 L 453.320312 223.203125 C 450.960938 223.203125 449.050781 225.128906 449.050781 227.476562 L 449.050781 290.042969 C 449.050781 292.402344 450.960938 294.3125 453.320312 294.3125 L 472.933594 294.3125 C 475.292969 294.3125 477.203125 292.402344 477.203125 290.042969 L 477.203125 227.476562 C 477.203125 225.128906 475.292969 223.203125 472.933594 223.203125 " fill-opacity="1" fill-rule="nonzero"/><path fill="#f73728" d="M 480.023438 225.101562 L 504.894531 225.101562 L 504.894531 224.761719 L 480.023438 224.761719 L 480.023438 225.101562 " fill-opacity="1" fill-rule="nonzero"/><path fill="#f73728" d="M 480.023438 229.664062 L 504.894531 229.664062 L 504.894531 229.320312 L 480.023438 229.320312 L 480.023438 229.664062 " fill-opacity="1" fill-rule="nonzero"/><path fill="#f73728" d="M 480.023438 234.222656 L 504.894531 234.222656 L 504.894531 233.882812 L 480.023438 233.882812 L 480.023438 234.222656 " fill-opacity="1" fill-rule="nonzero"/><path fill="#f73728" d="M 480.023438 238.785156 L 504.894531 238.785156 L 504.894531 238.441406 L 480.023438 238.441406 L 480.023438 238.785156 " fill-opacity="1" fill-rule="nonzero"/><path fill="#f73728" d="M 480.023438 243.34375 L 504.894531 243.34375 L 504.894531 243 L 480.023438 243 L 480.023438 243.34375 " fill-opacity="1" fill-rule="nonzero"/><g clip-path="url(#5ffef3796c)"><path fill="#f73728" d="M 348.839844 373.09375 C 347.652344 373.09375 346.691406 372.117188 346.691406 370.929688 C 346.691406 369.746094 347.652344 368.769531 348.839844 368.769531 C 350.039062 368.769531 351.015625 369.746094 351.015625 370.929688 C 351.015625 372.117188 350.039062 373.09375 348.839844 373.09375 Z M 388.699219 352.109375 L 421.332031 352.109375 L 421.332031 350.683594 L 387.273438 350.683594 L 387.273438 370.21875 L 353.796875 370.21875 C 353.441406 367.792969 351.371094 365.921875 348.839844 365.921875 C 346.085938 365.921875 343.832031 368.164062 343.832031 370.929688 C 343.832031 373.699219 346.085938 375.953125 348.839844 375.953125 C 351.371094 375.953125 353.441406 374.066406 353.796875 371.640625 L 388.699219 371.640625 L 388.699219 352.109375 " fill-opacity="1" fill-rule="nonzero"/></g><path fill="#f73728" d="M 372.988281 343.199219 C 372.988281 344.398438 372.011719 345.359375 370.824219 345.359375 C 369.625 345.359375 368.664062 344.398438 368.664062 343.199219 C 368.664062 342.011719 369.625 341.039062 370.824219 341.039062 C 372.011719 341.039062 372.988281 342.011719 372.988281 343.199219 Z M 421.332031 308.164062 L 370.113281 308.164062 L 370.113281 338.257812 C 367.6875 338.613281 365.816406 340.679688 365.816406 343.199219 C 365.816406 345.96875 368.058594 348.207031 370.824219 348.207031 C 373.59375 348.207031 375.832031 345.96875 375.832031 343.199219 C 375.832031 340.679688 373.960938 338.613281 371.535156 338.257812 L 371.535156 309.601562 L 421.332031 309.601562 L 421.332031 308.164062 " fill-opacity="1" fill-rule="nonzero"/><path fill="#f73728" d="M 397.84375 332.21875 C 396.644531 332.21875 395.683594 331.257812 395.683594 330.070312 C 395.683594 328.871094 396.644531 327.910156 397.84375 327.910156 C 399.03125 327.910156 400.007812 328.871094 400.007812 330.070312 C 400.007812 331.257812 399.03125 332.21875 397.84375 332.21875 Z M 397.84375 325.050781 C 395.078125 325.050781 392.824219 327.304688 392.824219 330.070312 C 392.824219 332.824219 395.078125 335.078125 397.84375 335.078125 C 400.363281 335.078125 402.429688 333.207031 402.789062 330.78125 L 421.332031 330.78125 L 421.332031 329.347656 L 402.789062 329.347656 C 402.429688 326.921875 400.363281 325.050781 397.84375 325.050781 " fill-opacity="1" fill-rule="nonzero"/><path fill="#f73728" d="M 397.84375 248.089844 C 396.644531 248.089844 395.683594 247.128906 395.683594 245.929688 C 395.683594 244.742188 396.644531 243.78125 397.84375 243.78125 C 399.03125 243.78125 400.007812 244.742188 400.007812 245.929688 C 400.007812 247.128906 399.03125 248.089844 397.84375 248.089844 Z M 421.332031 245.214844 L 402.789062 245.214844 C 402.429688 242.789062 400.363281 240.917969 397.84375 240.917969 C 395.078125 240.917969 392.824219 243.171875 392.824219 245.929688 C 392.824219 248.695312 395.078125 250.949219 397.84375 250.949219 C 400.363281 250.949219 402.429688 249.078125 402.789062 246.652344 L 421.332031 246.652344 L 421.332031 245.214844 " fill-opacity="1" fill-rule="nonzero"/><path fill="#f73728" d="M 368.664062 232.800781 C 368.664062 231.613281 369.625 230.636719 370.824219 230.636719 C 372.011719 230.636719 372.988281 231.613281 372.988281 232.800781 C 372.988281 233.988281 372.011719 234.960938 370.824219 234.960938 C 369.625 234.960938 368.664062 233.988281 368.664062 232.800781 Z M 421.332031 267.832031 L 421.332031 266.398438 L 371.535156 266.398438 L 371.535156 237.742188 C 373.960938 237.398438 375.832031 235.316406 375.832031 232.800781 C 375.832031 230.03125 373.59375 227.792969 370.824219 227.792969 C 368.058594 227.792969 365.816406 230.03125 365.816406 232.800781 C 365.816406 235.316406 367.6875 237.398438 370.113281 237.742188 L 370.113281 267.832031 L 421.332031 267.832031 " fill-opacity="1" fill-rule="nonzero"/><g clip-path="url(#1eefd1ce53)"><path fill="#f73728" d="M 348.839844 202.90625 C 350.039062 202.90625 351.015625 203.882812 351.015625 205.070312 C 351.015625 206.269531 350.039062 207.230469 348.839844 207.230469 C 347.652344 207.230469 346.691406 206.269531 346.691406 205.070312 C 346.691406 203.882812 347.652344 202.90625 348.839844 202.90625 Z M 348.839844 210.089844 C 351.371094 210.089844 353.441406 208.207031 353.796875 205.78125 L 387.273438 205.78125 L 387.273438 225.3125 L 421.332031 225.3125 L 421.332031 223.890625 L 388.699219 223.890625 L 388.699219 204.355469 L 353.796875 204.355469 C 353.441406 201.933594 351.371094 200.058594 348.839844 200.058594 C 346.085938 200.058594 343.832031 202.300781 343.832031 205.070312 C 343.832031 207.835938 346.085938 210.089844 348.839844 210.089844 " fill-opacity="1" fill-rule="nonzero"/></g><g clip-path="url(#0cd44b2d98)"><path fill="#f73728" d="M 348.3125 286.128906 C 349.5 286.128906 350.460938 287.101562 350.460938 288.289062 C 350.460938 289.488281 349.5 290.449219 348.3125 290.449219 C 347.113281 290.449219 346.136719 289.488281 346.136719 288.289062 C 346.136719 287.101562 347.113281 286.128906 348.3125 286.128906 Z M 348.3125 293.3125 C 350.832031 293.3125 352.898438 291.441406 353.242188 289 L 421.332031 289 L 421.332031 287.578125 L 353.242188 287.578125 C 352.898438 285.152344 350.832031 283.28125 348.3125 283.28125 C 345.542969 283.28125 343.292969 285.535156 343.292969 288.289062 C 343.292969 291.058594 345.542969 293.3125 348.3125 293.3125 " fill-opacity="1" fill-rule="nonzero"/></g></svg>