<svg xmlns="http://www.w3.org/2000/svg" xmlns:xlink="http://www.w3.org/1999/xlink" width="1366" zoomAndPan="magnify" viewBox="0 0 1024.5 576" height="768" preserveAspectRatio="xMidYMid meet" version="1.0"><defs><clipPath id="c4f5393dc2"><path d="M 0 0.140625 L 345.582031 0.140625 L 345.582031 288 L 0 288 Z M 0 0.140625 " clip-rule="nonzero"/></clipPath><clipPath id="2cb2bd5fad"><path d="M 678.410156 288 L 1023.992188 288 L 1023.992188 575.859375 L 678.410156 575.859375 Z M 678.410156 288 " clip-rule="nonzero"/></clipPath></defs><g clip-path="url(#c4f5393dc2)"><path fill="#f73728" d="M 96.457031 5.652344 C 95.601562 4.820312 94.3125 4.820312 93.457031 5.652344 C 92.625 6.503906 92.625 7.796875 93.457031 8.648438 C 94.175781 9.347656 95.214844 9.460938 96.03125 8.96875 L 119.785156 32.722656 L 119.785156 47.355469 L 142.128906 69.699219 L 198.679688 69.699219 L 211.277344 57.101562 L 341.582031 57.101562 C 341.820312 58.015625 342.652344 58.695312 343.636719 58.695312 C 344.804688 58.695312 345.761719 57.746094 345.761719 56.574219 C 345.761719 55.410156 344.8125 54.449219 343.636719 54.449219 C 342.652344 54.449219 341.820312 55.132812 341.582031 56.046875 L 210.847656 56.046875 L 198.25 68.644531 L 142.570312 68.644531 L 120.839844 46.917969 L 120.839844 32.285156 L 96.773438 8.21875 C 97.265625 7.410156 97.160156 6.371094 96.457031 5.652344 M 6.332031 29.871094 C 5.167969 29.871094 4.207031 30.824219 4.207031 31.996094 C 4.207031 33.160156 5.160156 34.117188 6.332031 34.117188 C 7.320312 34.117188 8.152344 33.4375 8.386719 32.523438 L 74.863281 32.523438 L 87.890625 45.550781 L 87.890625 74.34375 L 133.601562 120.054688 L 195.101562 120.054688 L 208.21875 133.171875 L 277.207031 133.171875 C 277.445312 134.085938 278.277344 134.769531 279.265625 134.769531 C 280.429688 134.769531 281.386719 133.820312 281.386719 132.644531 C 281.386719 131.480469 280.4375 130.523438 279.265625 130.523438 C 278.277344 130.523438 277.445312 131.207031 277.207031 132.117188 L 208.648438 132.117188 L 195.53125 119.003906 L 134.03125 119.003906 L 88.9375 73.90625 L 88.9375 45.113281 L 75.292969 31.46875 L 8.386719 31.46875 C 8.152344 30.546875 7.320312 29.871094 6.332031 29.871094 Z M 119.339844 61.734375 C 118.488281 60.902344 117.195312 60.902344 116.34375 61.734375 C 115.511719 62.585938 115.511719 63.878906 116.34375 64.730469 C 117.0625 65.429688 118.101562 65.542969 118.917969 65.050781 L 141.292969 87.425781 L 205.003906 87.425781 L 218.8125 73.617188 L 264.589844 73.617188 C 264.828125 74.53125 265.660156 75.214844 266.644531 75.214844 C 267.8125 75.214844 268.769531 74.261719 268.769531 73.089844 C 268.769531 71.925781 267.820312 70.96875 266.644531 70.96875 C 265.660156 70.96875 264.828125 71.648438 264.589844 72.5625 L 218.378906 72.5625 L 204.574219 86.371094 L 141.738281 86.371094 L 119.675781 64.308594 C 120.152344 63.492188 120.039062 62.460938 119.339844 61.734375 Z M 150.941406 52.847656 C 149.777344 52.847656 148.820312 53.796875 148.820312 54.96875 C 148.820312 56.136719 149.769531 57.09375 150.941406 57.09375 C 151.929688 57.09375 152.761719 56.410156 152.996094 55.496094 L 190.804688 55.496094 L 208.128906 38.171875 L 269.539062 38.171875 L 278.992188 28.722656 L 323.441406 28.722656 C 323.675781 29.636719 324.507812 30.320312 325.496094 30.320312 C 326.660156 30.320312 327.621094 29.367188 327.621094 28.195312 C 327.621094 27.03125 326.667969 26.074219 325.496094 26.074219 C 324.507812 26.074219 323.675781 26.753906 323.441406 27.667969 L 278.550781 27.667969 L 269.101562 37.117188 L 207.691406 37.117188 L 190.367188 54.445312 L 152.996094 54.445312 C 152.761719 53.53125 151.929688 52.847656 150.941406 52.847656 Z M 127.671875 2.683594 C 125.183594 0.226562 121.226562 0.226562 118.738281 2.683594 C 116.28125 5.167969 116.28125 9.125 118.738281 11.613281 C 120.839844 13.691406 123.980469 14.011719 126.410156 12.585938 L 149.960938 36.136719 L 177.507812 36.136719 L 192.835938 20.808594 L 219.34375 20.808594 C 220.050781 23.527344 222.53125 25.546875 225.453125 25.546875 C 228.929688 25.546875 231.765625 22.710938 231.765625 19.234375 C 231.765625 15.761719 228.929688 12.925781 225.453125 12.925781 C 222.523438 12.925781 220.050781 14.945312 219.34375 17.660156 L 191.53125 17.660156 L 176.203125 32.992188 L 151.277344 32.992188 L 128.644531 10.351562 C 130.066406 7.929688 129.742188 4.78125 127.671875 2.683594 Z M 6.332031 35.9375 C 2.859375 35.9375 0.0234375 38.773438 0.0234375 42.246094 C 0.0234375 45.722656 2.859375 48.558594 6.332031 48.558594 C 9.265625 48.558594 11.734375 46.539062 12.441406 43.820312 L 62.589844 43.820312 L 70.980469 52.210938 L 70.980469 78.242188 L 127.078125 134.339844 L 127.078125 171.65625 L 154.578125 199.15625 C 153.152344 201.585938 153.472656 204.722656 155.550781 206.824219 C 158.039062 209.28125 161.996094 209.28125 164.480469 206.824219 C 166.9375 204.339844 166.9375 200.382812 164.480469 197.894531 C 162.378906 195.816406 159.242188 195.496094 156.8125 196.921875 L 130.230469 170.339844 L 130.230469 133.023438 L 74.132812 76.929688 L 74.132812 50.894531 L 63.898438 40.660156 L 12.441406 40.660156 C 11.734375 37.957031 9.265625 35.9375 6.332031 35.9375 Z M 237.761719 159.71875 C 238.929688 159.71875 239.886719 158.769531 239.886719 157.59375 C 239.886719 156.429688 238.933594 155.472656 237.761719 155.472656 C 236.773438 155.472656 235.945312 156.15625 235.707031 157.066406 L 208.152344 157.066406 L 191.269531 140.1875 L 141.609375 140.1875 L 141.609375 162.710938 L 161.171875 182.269531 L 184.582031 182.269531 C 184.820312 183.183594 185.652344 183.867188 186.640625 183.867188 C 187.804688 183.867188 188.761719 182.914062 188.761719 181.742188 C 188.761719 180.578125 187.8125 179.621094 186.640625 179.621094 C 185.652344 179.621094 184.820312 180.300781 184.582031 181.214844 L 161.609375 181.214844 L 142.664062 162.273438 L 142.664062 141.242188 L 190.832031 141.242188 L 207.722656 158.121094 L 235.707031 158.121094 C 235.945312 159.035156 236.773438 159.71875 237.761719 159.71875 Z M 6.332031 54.011719 C 5.167969 54.011719 4.207031 54.964844 4.207031 56.136719 C 4.207031 57.300781 5.160156 58.257812 6.332031 58.257812 C 7.320312 58.257812 8.152344 57.574219 8.386719 56.664062 L 51.351562 56.664062 L 56.5625 61.875 L 56.5625 81.789062 L 33.449219 104.914062 L 33.449219 171.542969 L 61.027344 199.121094 L 61.027344 230.179688 C 60.113281 230.414062 59.429688 231.246094 59.429688 232.234375 C 59.429688 233.398438 60.378906 234.359375 61.550781 234.359375 C 62.71875 234.359375 63.675781 233.40625 63.675781 232.234375 C 63.675781 231.246094 62.992188 230.414062 62.078125 230.179688 L 62.078125 198.683594 L 34.503906 171.105469 L 34.503906 105.34375 L 57.617188 82.226562 L 57.617188 61.4375 L 51.785156 55.601562 L 8.386719 55.601562 C 8.152344 54.695312 7.320312 54.011719 6.332031 54.011719 Z M 41.828125 79.84375 C 44.285156 77.359375 44.285156 73.402344 41.828125 70.914062 C 39.34375 68.457031 35.386719 68.457031 32.898438 70.914062 C 30.820312 73.015625 30.5 76.15625 31.925781 78.582031 L 20.160156 90.347656 L 20.160156 182.386719 L 38.15625 200.382812 L 38.15625 247.742188 C 35.4375 248.445312 33.417969 250.925781 33.417969 253.851562 C 33.417969 257.324219 36.253906 260.160156 39.726562 260.160156 C 43.203125 260.160156 46.039062 257.324219 46.039062 253.851562 C 46.039062 250.917969 44.019531 248.445312 41.300781 247.742188 L 41.300781 199.074219 L 23.316406 181.089844 L 23.316406 91.664062 L 34.152344 80.824219 C 36.589844 82.25 39.734375 81.925781 41.828125 79.84375 Z M 23.710938 199.566406 C 23.710938 198.398438 22.757812 197.441406 21.585938 197.441406 C 20.421875 197.441406 19.464844 198.394531 19.464844 199.566406 C 19.464844 200.550781 20.144531 201.382812 21.058594 201.621094 L 21.058594 237.378906 L 13.5625 244.875 L 13.5625 283.667969 C 12.648438 283.90625 11.964844 284.738281 11.964844 285.726562 C 11.964844 286.890625 12.917969 287.847656 14.089844 287.847656 C 15.253906 287.847656 16.210938 286.898438 16.210938 285.726562 C 16.210938 284.738281 15.527344 283.90625 14.617188 283.667969 L 14.617188 245.308594 L 22.113281 237.808594 L 22.113281 201.621094 C 23.035156 201.382812 23.710938 200.554688 23.710938 199.566406 Z M 67.90625 101.808594 C 67.054688 100.980469 65.761719 100.980469 64.90625 101.808594 C 64.078125 102.664062 64.078125 103.957031 64.90625 104.808594 C 65.628906 105.507812 66.667969 105.617188 67.484375 105.128906 L 104.066406 141.710938 L 104.066406 178 L 147.921875 221.855469 L 228.453125 221.855469 C 228.691406 222.769531 229.523438 223.453125 230.511719 223.453125 C 231.675781 223.453125 232.632812 222.503906 232.632812 221.328125 C 232.632812 220.164062 231.683594 219.207031 230.511719 219.207031 C 229.523438 219.207031 228.691406 219.890625 228.453125 220.804688 L 148.359375 220.804688 L 105.117188 177.5625 L 105.117188 141.273438 L 68.226562 104.378906 C 68.714844 103.570312 68.605469 102.539062 67.90625 101.808594 Z M 70.636719 92.679688 C 71.46875 91.828125 71.46875 90.535156 70.636719 89.679688 C 69.785156 88.851562 68.492188 88.851562 67.640625 89.679688 C 66.941406 90.402344 66.832031 91.441406 67.320312 92.257812 L 47.300781 112.277344 L 47.300781 162.695312 L 76.792969 192.1875 L 76.792969 260.152344 C 75.878906 260.390625 75.195312 261.222656 75.195312 262.210938 C 75.195312 263.375 76.144531 264.332031 77.320312 264.332031 C 78.484375 264.332031 79.441406 263.382812 79.441406 262.210938 C 79.441406 261.222656 78.757812 260.390625 77.847656 260.152344 L 77.847656 191.757812 L 48.355469 162.265625 L 48.355469 112.714844 L 68.070312 93 C 68.878906 93.488281 69.917969 93.386719 70.636719 92.679688 Z M 80.816406 129.980469 C 80.792969 125.320312 77.058594 121.59375 72.398438 121.5625 C 67.734375 121.585938 64.007812 125.320312 63.980469 129.980469 C 64.003906 133.914062 66.660156 137.1875 70.289062 138.125 L 70.289062 166.199219 L 89.539062 185.445312 L 89.539062 211.777344 C 85.90625 212.71875 83.25 215.984375 83.226562 219.917969 C 83.25 224.582031 86.984375 228.308594 91.644531 228.335938 C 96.308594 228.316406 100.035156 224.582031 100.0625 219.917969 C 100.042969 215.984375 97.382812 212.710938 93.753906 211.777344 L 93.753906 183.703125 L 74.503906 164.453125 L 74.503906 138.125 C 78.136719 137.1875 80.792969 133.914062 80.816406 129.980469 Z M 6.332031 16.933594 C 5.167969 16.933594 4.207031 17.882812 4.207031 19.058594 C 4.207031 20.222656 5.160156 21.179688 6.332031 21.179688 C 7.320312 21.179688 8.152344 20.496094 8.386719 19.585938 L 83.226562 19.585938 L 103.589844 39.945312 L 103.589844 70.402344 L 138.53125 105.34375 L 219.933594 105.34375 C 220.167969 106.257812 221 106.941406 221.988281 106.941406 C 223.152344 106.941406 224.109375 105.988281 224.109375 104.816406 C 224.109375 103.652344 223.160156 102.695312 221.988281 102.695312 C 221 102.695312 220.167969 103.375 219.933594 104.289062 L 138.960938 104.289062 L 104.636719 69.964844 L 104.636719 39.507812 L 83.660156 18.53125 L 8.386719 18.53125 C 8.152344 17.609375 7.320312 16.933594 6.332031 16.933594 Z M 6.332031 16.933594 " fill-opacity="1" fill-rule="nonzero"/></g><g clip-path="url(#2cb2bd5fad)"><path fill="#f73728" d="M 927.535156 570.347656 C 928.390625 571.179688 929.679688 571.179688 930.535156 570.347656 C 931.367188 569.496094 931.367188 568.203125 930.535156 567.351562 C 929.816406 566.652344 928.777344 566.539062 927.957031 567.03125 L 904.203125 543.277344 L 904.203125 528.644531 L 881.863281 506.300781 L 825.3125 506.300781 L 812.714844 518.898438 L 682.410156 518.898438 C 682.171875 517.984375 681.339844 517.304688 680.351562 517.304688 C 679.1875 517.304688 678.230469 518.253906 678.230469 519.425781 C 678.230469 520.589844 679.179688 521.550781 680.351562 521.550781 C 681.339844 521.550781 682.171875 520.867188 682.410156 519.953125 L 813.144531 519.953125 L 825.742188 507.355469 L 881.421875 507.355469 L 903.152344 529.082031 L 903.152344 543.714844 L 927.214844 567.78125 C 926.726562 568.589844 926.832031 569.628906 927.535156 570.347656 M 1017.660156 546.128906 C 1018.824219 546.128906 1019.78125 545.175781 1019.78125 544.003906 C 1019.78125 542.839844 1018.832031 541.882812 1017.660156 541.882812 C 1016.671875 541.882812 1015.839844 542.5625 1015.605469 543.476562 L 949.128906 543.476562 L 936.101562 530.449219 L 936.101562 501.65625 L 890.390625 455.945312 L 828.890625 455.945312 L 815.773438 442.828125 L 746.78125 442.828125 C 746.546875 441.914062 745.714844 441.230469 744.726562 441.230469 C 743.5625 441.230469 742.605469 442.179688 742.605469 443.355469 C 742.605469 444.519531 743.554688 445.476562 744.726562 445.476562 C 745.714844 445.476562 746.546875 444.792969 746.78125 443.882812 L 815.34375 443.882812 L 828.460938 456.996094 L 889.960938 456.996094 L 935.054688 502.09375 L 935.054688 530.886719 L 948.699219 544.53125 L 1015.605469 544.53125 C 1015.839844 545.453125 1016.671875 546.128906 1017.660156 546.128906 Z M 904.648438 514.265625 C 905.503906 515.097656 906.796875 515.097656 907.648438 514.265625 C 908.480469 513.414062 908.480469 512.121094 907.648438 511.269531 C 906.929688 510.570312 905.890625 510.457031 905.074219 510.949219 L 882.699219 488.574219 L 818.988281 488.574219 L 805.179688 502.382812 L 759.402344 502.382812 C 759.164062 501.46875 758.332031 500.785156 757.347656 500.785156 C 756.179688 500.785156 755.222656 501.738281 755.222656 502.910156 C 755.222656 504.074219 756.171875 505.03125 757.347656 505.03125 C 758.332031 505.03125 759.164062 504.351562 759.402344 503.4375 L 805.609375 503.4375 L 819.417969 489.628906 L 882.253906 489.628906 L 904.316406 511.691406 C 903.839844 512.507812 903.953125 513.539062 904.648438 514.265625 Z M 873.050781 523.152344 C 874.214844 523.152344 875.171875 522.203125 875.171875 521.03125 C 875.171875 519.863281 874.222656 518.90625 873.050781 518.90625 C 872.0625 518.90625 871.230469 519.589844 870.992188 520.503906 L 833.1875 520.503906 L 815.863281 537.828125 L 754.449219 537.828125 L 745 547.277344 L 700.550781 547.277344 C 700.3125 546.363281 699.484375 545.679688 698.496094 545.679688 C 697.332031 545.679688 696.371094 546.632812 696.371094 547.804688 C 696.371094 548.96875 697.324219 549.925781 698.496094 549.925781 C 699.484375 549.925781 700.3125 549.246094 700.550781 548.332031 L 745.4375 548.332031 L 754.890625 538.882812 L 816.300781 538.882812 L 833.625 521.554688 L 870.992188 521.554688 C 871.230469 522.46875 872.0625 523.152344 873.050781 523.152344 Z M 896.320312 573.316406 C 898.808594 575.773438 902.765625 575.773438 905.25 573.316406 C 907.707031 570.832031 907.707031 566.875 905.25 564.386719 C 903.152344 562.308594 900.011719 561.988281 897.582031 563.414062 L 874.03125 539.863281 L 846.484375 539.863281 L 831.152344 555.191406 L 804.644531 555.191406 C 803.941406 552.472656 801.460938 550.453125 798.535156 550.453125 C 795.0625 550.453125 792.226562 553.289062 792.226562 556.765625 C 792.226562 560.238281 795.0625 563.074219 798.535156 563.074219 C 801.46875 563.074219 803.941406 561.054688 804.644531 558.339844 L 832.460938 558.339844 L 847.789062 543.007812 L 872.714844 543.007812 L 895.347656 565.648438 C 893.925781 568.070312 894.25 571.21875 896.320312 573.316406 Z M 1017.660156 540.0625 C 1021.132812 540.0625 1023.96875 537.226562 1023.96875 533.753906 C 1023.96875 530.277344 1021.132812 527.441406 1017.660156 527.441406 C 1014.726562 527.441406 1012.253906 529.460938 1011.550781 532.179688 L 961.398438 532.179688 L 953.011719 523.789062 L 953.011719 497.757812 L 896.914062 441.660156 L 896.914062 404.34375 L 869.414062 376.84375 C 870.839844 374.414062 870.519531 371.277344 868.441406 369.175781 C 865.953125 366.71875 861.996094 366.71875 859.511719 369.175781 C 857.054688 371.660156 857.054688 375.617188 859.511719 378.105469 C 861.609375 380.183594 864.75 380.503906 867.179688 379.078125 L 893.761719 405.660156 L 893.761719 442.976562 L 949.855469 499.070312 L 949.855469 525.105469 L 960.09375 535.339844 L 1011.550781 535.339844 C 1012.253906 538.042969 1014.726562 540.0625 1017.660156 540.0625 Z M 786.230469 416.28125 C 785.0625 416.28125 784.105469 417.230469 784.105469 418.40625 C 784.105469 419.570312 785.054688 420.527344 786.230469 420.527344 C 787.214844 420.527344 788.046875 419.84375 788.285156 418.933594 L 815.839844 418.933594 L 832.71875 435.8125 L 882.382812 435.8125 L 882.382812 413.289062 L 862.820312 393.730469 L 839.410156 393.730469 C 839.171875 392.816406 838.339844 392.132812 837.351562 392.132812 C 836.1875 392.132812 835.230469 393.085938 835.230469 394.257812 C 835.230469 395.421875 836.179688 396.378906 837.351562 396.378906 C 838.339844 396.378906 839.171875 395.699219 839.410156 394.785156 L 862.382812 394.785156 L 881.328125 413.726562 L 881.328125 434.757812 L 833.160156 434.757812 L 816.269531 417.878906 L 788.285156 417.878906 C 788.046875 416.964844 787.214844 416.28125 786.230469 416.28125 Z M 1017.660156 521.988281 C 1018.824219 521.988281 1019.78125 521.035156 1019.78125 519.863281 C 1019.78125 518.699219 1018.832031 517.742188 1017.660156 517.742188 C 1016.671875 517.742188 1015.839844 518.425781 1015.605469 519.335938 L 972.636719 519.335938 L 967.425781 514.125 L 967.425781 494.210938 L 990.542969 471.085938 L 990.542969 404.457031 L 962.964844 376.878906 L 962.964844 345.820312 C 963.878906 345.585938 964.5625 344.753906 964.5625 343.765625 C 964.5625 342.601562 963.613281 341.640625 962.4375 341.640625 C 961.273438 341.640625 960.316406 342.59375 960.316406 343.765625 C 960.316406 344.753906 961 345.585938 961.914062 345.820312 L 961.914062 377.316406 L 989.488281 404.894531 L 989.488281 470.65625 L 966.375 493.773438 L 966.375 514.5625 L 972.207031 520.398438 L 1015.605469 520.398438 C 1015.839844 521.304688 1016.671875 521.988281 1017.660156 521.988281 Z M 982.164062 496.15625 C 979.707031 498.640625 979.707031 502.597656 982.164062 505.085938 C 984.648438 507.542969 988.605469 507.542969 991.09375 505.085938 C 993.171875 502.984375 993.488281 499.84375 992.066406 497.417969 L 1003.832031 485.652344 L 1003.832031 393.613281 L 985.835938 375.617188 L 985.835938 328.257812 C 988.554688 327.554688 990.574219 325.074219 990.574219 322.148438 C 990.574219 318.675781 987.738281 315.839844 984.261719 315.839844 C 980.789062 315.839844 977.953125 318.675781 977.953125 322.148438 C 977.953125 325.082031 979.972656 327.554688 982.691406 328.257812 L 982.691406 376.925781 L 1000.675781 394.910156 L 1000.675781 484.335938 L 989.839844 495.175781 C 987.402344 493.75 984.253906 494.074219 982.164062 496.15625 Z M 1000.28125 376.433594 C 1000.28125 377.601562 1001.234375 378.558594 1002.40625 378.558594 C 1003.570312 378.558594 1004.527344 377.605469 1004.527344 376.433594 C 1004.527344 375.449219 1003.84375 374.617188 1002.933594 374.378906 L 1002.933594 338.621094 L 1010.429688 331.125 L 1010.429688 292.332031 C 1011.34375 292.09375 1012.027344 291.261719 1012.027344 290.273438 C 1012.027344 289.109375 1011.074219 288.152344 1009.902344 288.152344 C 1008.738281 288.152344 1007.78125 289.101562 1007.78125 290.273438 C 1007.78125 291.261719 1008.460938 292.09375 1009.375 292.332031 L 1009.375 330.691406 L 1001.878906 338.191406 L 1001.878906 374.378906 C 1000.957031 374.617188 1000.28125 375.445312 1000.28125 376.433594 Z M 956.085938 474.191406 C 956.9375 475.019531 958.230469 475.019531 959.085938 474.191406 C 959.914062 473.335938 959.914062 472.042969 959.085938 471.191406 C 958.363281 470.492188 957.324219 470.382812 956.507812 470.871094 L 919.925781 434.289062 L 919.925781 398 L 876.070312 354.144531 L 795.539062 354.144531 C 795.300781 353.230469 794.46875 352.546875 793.480469 352.546875 C 792.316406 352.546875 791.359375 353.496094 791.359375 354.671875 C 791.359375 355.835938 792.308594 356.792969 793.480469 356.792969 C 794.46875 356.792969 795.300781 356.109375 795.539062 355.195312 L 875.632812 355.195312 L 918.871094 398.4375 L 918.871094 434.726562 L 955.765625 471.621094 C 955.277344 472.429688 955.386719 473.460938 956.085938 474.191406 Z M 953.351562 483.320312 C 952.523438 484.171875 952.523438 485.464844 953.351562 486.320312 C 954.207031 487.148438 955.5 487.148438 956.351562 486.320312 C 957.050781 485.597656 957.160156 484.558594 956.671875 483.742188 L 976.691406 463.722656 L 976.691406 413.304688 L 947.199219 383.8125 L 947.199219 315.847656 C 948.113281 315.609375 948.796875 314.777344 948.796875 313.789062 C 948.796875 312.625 947.84375 311.667969 946.671875 311.667969 C 945.507812 311.667969 944.550781 312.617188 944.550781 313.789062 C 944.550781 314.777344 945.234375 315.609375 946.144531 315.847656 L 946.144531 384.242188 L 975.636719 413.734375 L 975.636719 463.285156 L 955.921875 483 C 955.113281 482.511719 954.074219 482.613281 953.351562 483.320312 Z M 943.175781 446.019531 C 943.199219 450.679688 946.933594 454.40625 951.59375 454.4375 C 956.253906 454.414062 959.980469 450.679688 960.011719 446.019531 C 959.988281 442.085938 957.332031 438.8125 953.703125 437.875 L 953.703125 409.800781 L 934.453125 390.554688 L 934.453125 364.222656 C 938.085938 363.28125 940.742188 360.015625 940.765625 356.082031 C 940.742188 351.417969 937.007812 347.691406 932.347656 347.664062 C 927.683594 347.683594 923.957031 351.417969 923.929688 356.082031 C 923.949219 360.015625 926.609375 363.289062 930.238281 364.222656 L 930.238281 392.296875 L 949.484375 411.546875 L 949.484375 437.875 C 945.855469 438.8125 943.199219 442.085938 943.175781 446.019531 Z M 1017.660156 559.066406 C 1018.824219 559.066406 1019.78125 558.117188 1019.78125 556.941406 C 1019.78125 555.777344 1018.832031 554.820312 1017.660156 554.820312 C 1016.671875 554.820312 1015.839844 555.503906 1015.605469 556.414062 L 940.765625 556.414062 L 920.402344 536.054688 L 920.402344 505.597656 L 885.460938 470.65625 L 804.058594 470.65625 C 803.820312 469.742188 802.992188 469.058594 802.003906 469.058594 C 800.839844 469.058594 799.878906 470.011719 799.878906 471.183594 C 799.878906 472.347656 800.832031 473.304688 802.003906 473.304688 C 802.992188 473.304688 803.820312 472.625 804.058594 471.710938 L 885.03125 471.710938 L 919.355469 506.035156 L 919.355469 536.492188 L 940.332031 557.46875 L 1015.605469 557.46875 C 1015.839844 558.390625 1016.671875 559.066406 1017.660156 559.066406 Z M 1017.660156 559.066406 " fill-opacity="1" fill-rule="nonzero"/></g></svg>